<svg id="logo-bpblack" xmlns="http://www.w3.org/2000/svg" width="155.659" height="71.723" viewBox="0 0 155.659 71.723">
  <g id="Layer_1-2" data-name="Layer 1-2">
    <path id="Path_9000" data-name="Path 9000" d="M132.878,17.42H81.147a2.9,2.9,0,0,0-2.365,1.213l-.465.647c-1.152,1.617-2.507,3.7-4.69,0l-.445-.667A2.9,2.9,0,0,0,70.817,17.4H22.4a2.89,2.89,0,0,0-2.891,2.891h0V47.1A2.89,2.89,0,0,0,22.4,49.987H35.3a2.872,2.872,0,0,1,2.3,1.152l2.022,2.689a.349.349,0,0,0,.485.04l.04-.04,2.022-2.689a2.834,2.834,0,0,1,2.284-1.152h88.423a2.9,2.9,0,0,0,2.85-2.891V20.311A2.9,2.9,0,0,0,132.878,17.42Z" transform="translate(19.93 17.775)" fill="#ffce00"/>
    <path id="Path_9001" data-name="Path 9001" d="M32.182,35.083a4.818,4.818,0,0,1-2.588-.627,4.532,4.532,0,0,1-1.779-1.819v7.5H24.46V21.943h2.871v2.2a5.342,5.342,0,0,1,1.86-1.819,5.1,5.1,0,0,1,2.608-.647A5.653,5.653,0,0,1,36.1,23.642a6.169,6.169,0,0,1,1.253,2.022,7.386,7.386,0,0,1,.465,2.729A8.35,8.35,0,0,1,37.4,31.04a6.719,6.719,0,0,1-1.173,2.143A5.515,5.515,0,0,1,34.446,34.6a4.865,4.865,0,0,1-2.264.485Zm-1.112-2.81a2.929,2.929,0,0,0,1.375-.323,3.619,3.619,0,0,0,1.071-.849,3.9,3.9,0,0,0,.687-1.274,4.368,4.368,0,0,0,.243-1.435,4.243,4.243,0,0,0-.263-1.5,4.286,4.286,0,0,0-.748-1.233,3.742,3.742,0,0,0-1.132-.809,3.406,3.406,0,0,0-1.415-.283,3.223,3.223,0,0,0-.97.142,3.865,3.865,0,0,0-.91.465,4.03,4.03,0,0,0-.748.687,2.881,2.881,0,0,0-.505.869v3.012a4.378,4.378,0,0,0,1.354,1.84,3.13,3.13,0,0,0,1.961.687Z" transform="translate(24.987 22.147)" fill="#212121"/>
    <path id="Path_9002" data-name="Path 9002" d="M36.147,35.059a5.19,5.19,0,0,1-1.759-.3,4.757,4.757,0,0,1-1.395-.869,3.913,3.913,0,0,1-.93-1.294,3.986,3.986,0,0,1-.323-1.617,3.816,3.816,0,0,1,.4-1.7,3.956,3.956,0,0,1,1.132-1.314,5.563,5.563,0,0,1,1.739-.849,8.053,8.053,0,0,1,2.2-.3,9.627,9.627,0,0,1,1.7.142,6.022,6.022,0,0,1,1.456.425v-.748a2.6,2.6,0,0,0-.728-2.022A2.979,2.979,0,0,0,37.5,23.92a5.765,5.765,0,0,0-2.022.364,8.493,8.493,0,0,0-2.022,1.092l-1.011-2.022A9.556,9.556,0,0,1,37.8,21.717a6.331,6.331,0,0,1,4.326,1.354,5.044,5.044,0,0,1,1.536,4.043v4.043a1.216,1.216,0,0,0,.182.748.856.856,0,0,0,.606.243v2.81A8.91,8.91,0,0,1,43,35.12a2.152,2.152,0,0,1-1.435-.425,1.681,1.681,0,0,1-.627-1.092v-.728a5.594,5.594,0,0,1-2.022,1.739,6.152,6.152,0,0,1-2.77.445Zm.93-2.426a4.189,4.189,0,0,0,1.577-.283,2.87,2.87,0,0,0,1.173-.788,1.162,1.162,0,0,0,.546-.93V29.156a6.6,6.6,0,0,0-1.274-.364,7.477,7.477,0,0,0-1.334-.142,3.578,3.578,0,0,0-2.022.586,1.723,1.723,0,0,0-.829,1.456,1.764,1.764,0,0,0,.647,1.395,2.329,2.329,0,0,0,1.516.546Z" transform="translate(32.424 22.171)" fill="#212121"/>
    <path id="Path_9003" data-name="Path 9003" d="M46.923,35.084a4.927,4.927,0,0,1-4.447-2.507v7.5H39.16V21.883h2.891v2.264a5.284,5.284,0,0,1,1.84-1.819,5.1,5.1,0,0,1,2.608-.647,5.447,5.447,0,0,1,2.446.647,5.693,5.693,0,0,1,2.022,1.435,6.169,6.169,0,0,1,1.253,2.022,7.11,7.11,0,0,1,.3,2.608,9.047,9.047,0,0,1-.4,2.648,6.877,6.877,0,0,1-1.152,2.1,5.515,5.515,0,0,1-1.779,1.415A5.167,5.167,0,0,1,46.923,35.084Zm-1.112-2.81a2.906,2.906,0,0,0,1.354-.323,2.942,2.942,0,0,0,1.071-.849,3.9,3.9,0,0,0,.687-1.274,4.535,4.535,0,0,0,.263-1.476,4.267,4.267,0,0,0-.283-1.5,3.672,3.672,0,0,0-.748-1.233,3.742,3.742,0,0,0-1.132-.809,3.406,3.406,0,0,0-1.415-.283,3.1,3.1,0,0,0-1.86.606,4.152,4.152,0,0,0-.768.687,2.881,2.881,0,0,0-.505.869v3.012a4.378,4.378,0,0,0,1.354,1.84,3.015,3.015,0,0,0,1.961.728h.02Z" transform="translate(40.004 22.147)" fill="#212121"/>
    <path id="Path_9004" data-name="Path 9004" d="M53.252,35.032a7.13,7.13,0,0,1-2.83-.546,6.5,6.5,0,0,1-2.143-1.456,6.582,6.582,0,0,1-1.334-2.143,7.285,7.285,0,0,1-.465-2.547,7.483,7.483,0,0,1,.465-2.567,6.4,6.4,0,0,1,1.334-2.022,6.261,6.261,0,0,1,2.143-1.476,7.558,7.558,0,0,1,5.64,0,6.415,6.415,0,0,1,2.123,1.456,6.762,6.762,0,0,1,1.334,2.022,7.51,7.51,0,0,1,.465,2.588,7.175,7.175,0,0,1-.465,2.527,6.582,6.582,0,0,1-1.334,2.143,6.3,6.3,0,0,1-2.022,1.456A7.254,7.254,0,0,1,53.252,35.032ZM49.876,28.34a4.579,4.579,0,0,0,.263,1.557,4.064,4.064,0,0,0,.708,1.213,3.2,3.2,0,0,0,3.72.809,3.009,3.009,0,0,0,1.071-.809,4.124,4.124,0,0,0,.728-1.213,5.238,5.238,0,0,0,.243-1.577,5.109,5.109,0,0,0-.243-1.557,3.823,3.823,0,0,0-.728-1.233,2.956,2.956,0,0,0-1.071-.788,3.187,3.187,0,0,0-2.648,0,3.487,3.487,0,0,0-1.071.809,4.164,4.164,0,0,0-.708,1.233A4.579,4.579,0,0,0,49.876,28.34Z" transform="translate(47.482 22.198)" fill="#212121"/>
    <path id="Path_9005" data-name="Path 9005" d="M88.893,31.966c-1.536,0-2.244-.788-2.244-2.325V20.16h-4.69v6.995a6.719,6.719,0,0,0-8.935-3.194,6.8,6.8,0,0,0-3.194,3.194v-3.74H65.16v6.53c0,1.193-.627,2.022-1.678,2.022S61.8,31.157,61.8,29.944v-6.53h-4.69v6.651a6.057,6.057,0,0,0,5.458,6.61,4.56,4.56,0,0,0,.91,0,5.855,5.855,0,0,0,6.065-4.528,6.715,6.715,0,0,0,12.655.121,5.5,5.5,0,0,0,6.065,4.306h1.193V31.946h-.566Zm-13.019,0A2.022,2.022,0,1,1,77.9,29.944,2.027,2.027,0,0,1,75.874,31.966Z" transform="translate(58.316 20.594)" fill="#212121"/>
    <path id="Path_9006" data-name="Path 9006" d="M0,3.255A3.253,3.253,0,0,1,3.255,0H113a3.235,3.235,0,0,1,3.234,3.255V29.312A3.248,3.248,0,0,1,113,32.567H100.633a3.255,3.255,0,0,0-2.588,1.294l-1.819,2.406a.483.483,0,0,1-.687.04l-.04-.04-1.84-2.406a3.255,3.255,0,0,0-2.588-1.294H3.255A3.253,3.253,0,0,1,0,29.312H0Z" fill="#ffce00"/>
    <path id="Path_9007" data-name="Path 9007" d="M31.788,21.474a5.223,5.223,0,0,1-2.628-.647,4.818,4.818,0,0,1-1.84-1.819v2.224H24.45V3.28h3.3V10.6A4.87,4.87,0,0,1,29.6,8.779a5.1,5.1,0,0,1,2.608-.647,4.983,4.983,0,0,1,2.284.526,5.713,5.713,0,0,1,1.8,1.456,7.329,7.329,0,0,1,1.152,2.143,8.015,8.015,0,0,1,.364,2.588,7.623,7.623,0,0,1-.465,2.608,6.169,6.169,0,0,1-1.253,2.022,6.313,6.313,0,0,1-1.92,1.415,5.763,5.763,0,0,1-2.385.586Zm-.91-2.79a3.613,3.613,0,0,0,1.456-.3,3.806,3.806,0,0,0,1.132-.829,4.064,4.064,0,0,0,.708-1.213,4.243,4.243,0,0,0,.263-1.5,4.731,4.731,0,0,0-.243-1.5,3.778,3.778,0,0,0-1.779-2.123A2.906,2.906,0,0,0,31.06,10.9a3.067,3.067,0,0,0-2.022.728A5.034,5.034,0,0,0,27.7,13.408v3.113a2.881,2.881,0,0,0,.505.869,3.439,3.439,0,0,0,.748.687,3.8,3.8,0,0,0,.91.445,3.41,3.41,0,0,0,1.011.162Z" transform="translate(24.977 3.351)" fill="#212121"/>
    <path id="Path_9008" data-name="Path 9008" d="M36.137,19.019a5.19,5.19,0,0,1-1.759-.3,4.109,4.109,0,0,1-1.395-.849,4.225,4.225,0,0,1-.93-1.294,4.152,4.152,0,0,1-.323-1.637,3.732,3.732,0,0,1,.4-1.678,3.956,3.956,0,0,1,1.132-1.314A5.563,5.563,0,0,1,35,11.094a8.052,8.052,0,0,1,2.2-.3,9.628,9.628,0,0,1,1.7.142,6.021,6.021,0,0,1,1.456.425v-.748a2.6,2.6,0,0,0-.728-2.022A2.979,2.979,0,0,0,37.491,7.9a5.765,5.765,0,0,0-2.022.364,8.493,8.493,0,0,0-2.022,1.092L32.438,7.334A9.621,9.621,0,0,1,37.815,5.7a6.247,6.247,0,0,1,4.306,1.354,4.915,4.915,0,0,1,1.536,4.043v4.043a1.157,1.157,0,0,0,.182.728.8.8,0,0,0,.606.263v2.79a5.981,5.981,0,0,1-1.456.182,2.267,2.267,0,0,1-1.435-.425,1.986,1.986,0,0,1-.627-1.112v-.708a5.541,5.541,0,0,1-2.022,1.718,5.888,5.888,0,0,1-2.77.445Zm.93-2.406a4.744,4.744,0,0,0,1.6-.283,3.013,3.013,0,0,0,1.152-.788,1.2,1.2,0,0,0,.546-.95V13.116a6.976,6.976,0,0,0-1.274-.344,5.989,5.989,0,0,0-1.334-.142,3.578,3.578,0,0,0-2.022.586,1.723,1.723,0,0,0-.829,1.456,1.764,1.764,0,0,0,.647,1.395,2.329,2.329,0,0,0,1.516.546Z" transform="translate(32.414 5.806)" fill="#212121"/>
    <path id="Path_9009" data-name="Path 9009" d="M47.333,20.115a11.326,11.326,0,0,1-1.637.606A7.625,7.625,0,0,1,43.674,21a5.531,5.531,0,0,1-1.294-.162,2.741,2.741,0,0,1-1.071-.566,2.464,2.464,0,0,1-.728-.97,3.672,3.672,0,0,1-.263-1.476v-7.48h-1.7V7.9h1.7V3.72h3.315V7.9h2.709v2.446H43.633v6.287a1.222,1.222,0,0,0,.364.991,1.489,1.489,0,0,0,.869.283,2.883,2.883,0,0,0,1.011-.182c.323-.121.586-.2.788-.3l.667,2.689Z" transform="translate(39.452 3.8)" fill="#212121"/>
    <path id="Path_9010" data-name="Path 9010" d="M50.012,19.033a7.051,7.051,0,0,1-2.81-.566,6.152,6.152,0,0,1-2.143-1.435,6.344,6.344,0,0,1-1.354-2.123A6.589,6.589,0,0,1,43.22,12.4a7.51,7.51,0,0,1,.465-2.588,5.948,5.948,0,0,1,1.354-2.143A6.554,6.554,0,0,1,47.182,6.2a7.277,7.277,0,0,1,2.85-.526,6.949,6.949,0,0,1,2.85.546A6.3,6.3,0,0,1,54.9,7.672a6.073,6.073,0,0,1,1.334,2.022,6.932,6.932,0,0,1,.505,2.709v1.112H46.818a3.965,3.965,0,0,0,.364,1.354,3.233,3.233,0,0,0,1.658,1.577,3.178,3.178,0,0,0,1.233.222,3.756,3.756,0,0,0,1.86-.485,2.484,2.484,0,0,0,1.193-1.253l2.83.788a5.873,5.873,0,0,1-2.284,2.426,7.014,7.014,0,0,1-3.659.889Zm3.336-7.763a3.389,3.389,0,0,0-1.071-2.325,3.517,3.517,0,0,0-3.437-.586,3.585,3.585,0,0,0-1.011.647,3.313,3.313,0,0,0-.728,1.011,3.249,3.249,0,0,0-.344,1.314Z" transform="translate(44.151 5.791)" fill="#212121"/>
    <circle id="Ellipse_32" data-name="Ellipse 32" cx="13.221" cy="13.221" r="13.221" transform="translate(18.8 2.507)" fill="#ff8000"/>
    <path id="Path_9011" data-name="Path 9011" d="M21.438,1.6A11.06,11.06,0,0,0,10.38,12.658a12.89,12.89,0,0,0,.142,1.759,10.51,10.51,0,0,1,9.926-6.429,10.757,10.757,0,0,1,9.036,4.67h0a4.425,4.425,0,0,1,2.931,1.011V12.658A11.043,11.043,0,0,0,21.438,1.6" transform="translate(10.604 1.634)" fill="#ffce00"/>
    <path id="Path_9012" data-name="Path 9012" d="M32.721,8.081A4.425,4.425,0,0,0,29.79,7.07h0A8.753,8.753,0,0,0,22.007,13.4a5.311,5.311,0,0,0,.627,4.67,8.43,8.43,0,0,1-1.011,0,11.072,11.072,0,0,1-10.916-9.3A8.706,8.706,0,0,0,10.12,11.9a9.13,9.13,0,0,0,3.234,6.873,12.675,12.675,0,0,0,4.225,2.3A13.244,13.244,0,0,0,31.73,17.219a12.559,12.559,0,0,0,2.022-3.194,5.714,5.714,0,0,0,.222-.627,5.078,5.078,0,0,0-1.193-5.317" transform="translate(10.338 7.222)" fill="#ff0024"/>
  </g>
</svg>
